<?xml version="1.0" standalone="no"?>
<!DOCTYPE svg PUBLIC "-//W3C//DTD SVG 20010904//EN"
 "http://www.w3.org/TR/2001/REC-SVG-20010904/DTD/svg10.dtd">
<svg version="1.0" xmlns="http://www.w3.org/2000/svg"
 width="1120.000000pt" height="1120.000000pt" viewBox="0 0 1120.000000 1120.000000"
 preserveAspectRatio="xMidYMid meet">
<metadata>
Created by potrace 1.14, written by Peter Selinger 2001-2017
</metadata>
<g transform="translate(0.000000,1120.000000) scale(0.100000,-0.100000)"
fill="#000000" stroke="none">
<path d="M2695 10384 c-33 -35 -69 -75 -81 -87 -12 -12 -48 -56 -80 -97 -32
-41 -62 -76 -66 -78 -5 -2 -8 -8 -8 -12 0 -8 -62 -103 -88 -135 -4 -5 -21 -32
-37 -60 -16 -27 -35 -59 -42 -70 -33 -55 -161 -322 -160 -335 0 -3 -6 -16 -13
-30 -8 -14 -14 -27 -15 -30 0 -4 -24 -71 -42 -120 -3 -8 -7 -19 -9 -25 -1 -5
-16 -57 -32 -115 -27 -94 -58 -232 -69 -300 -15 -106 -23 -171 -27 -237 -2
-34 -7 -67 -10 -72 -4 -5 -2 -13 4 -16 7 -4 7 -12 2 -18 -10 -15 -9 -247 1
-264 5 -8 3 -13 -3 -13 -6 0 -9 -4 -5 -10 3 -5 8 -40 11 -77 2 -37 7 -84 9
-103 3 -19 8 -55 11 -80 2 -25 7 -58 10 -75 4 -16 7 -39 9 -50 2 -11 8 -38 13
-60 6 -22 13 -51 16 -65 3 -14 12 -52 21 -85 10 -33 17 -66 18 -72 0 -7 5 -13
10 -13 6 0 8 -3 4 -6 -3 -3 3 -28 13 -55 11 -27 17 -49 14 -49 -4 0 -1 -6 5
-13 6 -8 12 -22 14 -33 2 -10 11 -36 20 -58 9 -21 17 -40 17 -42 0 -3 18 -43
40 -90 22 -47 40 -90 40 -95 0 -5 5 -9 12 -9 6 0 9 -3 6 -6 -7 -6 100 -200
138 -250 13 -17 20 -34 17 -38 -4 -3 -1 -6 5 -6 6 0 19 -15 28 -32 9 -18 20
-35 23 -38 3 -3 39 -49 79 -102 41 -54 78 -98 83 -98 5 0 9 -5 9 -10 0 -6 14
-24 30 -42 17 -17 30 -35 30 -40 0 -5 4 -6 10 -3 6 3 10 2 10 -3 0 -5 534
-545 1188 -1200 653 -654 1356 -1361 1562 -1571 206 -209 377 -381 380 -381 8
0 4 3038 -5 3125 -4 44 -7 88 -7 98 1 9 -2 17 -6 17 -4 0 -8 19 -8 43 -1 23
-4 56 -7 72 -3 17 -8 44 -12 60 -3 17 -8 41 -11 55 -13 54 -17 76 -18 93 0 9
-3 17 -6 17 -4 0 -7 6 -8 13 -1 14 -10 52 -12 52 -1 0 -4 11 -6 25 -5 27 -55
178 -74 225 -15 37 -30 73 -40 100 -19 47 -126 264 -153 310 -50 83 -173 268
-196 294 -11 13 -21 27 -21 30 0 4 -12 20 -27 37 -16 17 -48 55 -73 85 -24 30
-288 298 -585 597 -298 298 -539 545 -536 547 2 3 0 5 -6 5 -5 0 -50 41 -99
91 -49 51 -98 99 -108 108 -10 9 -28 27 -40 40 -12 13 -29 31 -40 40 -10 9
-23 21 -30 28 -59 60 -930 933 -931 933 0 0 -27 -30 -60 -66z"/>
<path d="M8910 7733 c-132 -132 -240 -237 -240 -234 0 3 -5 -1 -10 -9 -5 -8
-289 -296 -632 -640 -343 -344 -640 -646 -660 -670 -21 -25 -45 -53 -53 -63
-32 -37 -154 -224 -190 -292 -20 -38 -40 -77 -45 -85 -5 -8 -15 -32 -24 -52
-9 -21 -22 -53 -30 -70 -22 -52 -53 -139 -66 -183 -6 -22 -14 -47 -16 -55 -3
-8 -5 -16 -5 -17 0 -2 -5 -17 -10 -35 -5 -18 -12 -49 -15 -68 -3 -19 -8 -42
-11 -50 -3 -8 -7 -26 -9 -40 -2 -14 -6 -43 -9 -65 -3 -22 -8 -58 -11 -80 -7
-46 -12 -2346 -6 -2358 4 -8 311 299 312 312 1 3 19 20 40 36 21 17 39 34 40
38 0 5 442 450 983 990 981 981 1017 1018 1092 1117 22 29 46 58 53 65 6 8 12
16 12 19 0 4 36 63 57 92 38 51 169 319 164 332 -1 1 5 15 13 31 9 16 12 31 9
35 -4 3 -2 6 3 6 8 0 30 63 39 110 1 3 8 30 17 60 16 52 41 171 53 250 25 166
25 471 0 600 -3 13 -7 40 -10 60 -3 19 -12 64 -21 100 -8 36 -16 74 -18 85 -2
11 -9 32 -15 48 -6 15 -8 27 -5 27 4 0 2 6 -3 13 -5 6 -18 40 -29 75 -10 34
-23 62 -27 62 -5 0 -6 4 -3 8 2 4 -5 28 -16 52 -12 25 -22 47 -23 50 -4 18
-65 136 -97 189 -21 34 -38 67 -38 71 0 5 -4 10 -8 12 -4 2 -19 21 -32 43 -28
45 -157 207 -219 274 l-41 44 -240 -240z"/>
<path d="M766 6795 c-42 -44 -84 -90 -93 -102 -10 -12 -26 -31 -36 -42 -57
-69 -165 -224 -223 -322 -38 -63 -72 -117 -77 -120 -5 -3 -9 -10 -9 -15 -1
-15 -61 -139 -71 -145 -5 -3 -8 -10 -8 -15 1 -5 -6 -27 -16 -49 -9 -22 -17
-42 -18 -45 -1 -3 -7 -18 -14 -35 -14 -32 -62 -164 -66 -180 -1 -5 -7 -23 -13
-38 -7 -15 -11 -31 -10 -35 1 -4 -2 -14 -5 -22 -6 -16 -32 -117 -41 -160 -3
-14 -7 -36 -10 -50 -12 -54 -16 -76 -21 -110 -3 -19 -8 -51 -11 -70 -16 -105
-19 -178 -19 -405 0 -229 5 -327 20 -395 3 -14 7 -46 9 -72 2 -25 6 -50 9 -55
2 -4 7 -24 11 -43 10 -59 13 -72 35 -155 24 -87 39 -142 48 -165 3 -8 18 -50
33 -92 23 -65 49 -108 105 -175 5 -7 15 -18 20 -25 43 -56 141 -174 147 -176
5 -2 8 -8 8 -12 0 -5 10 -20 23 -33 63 -66 117 -130 117 -139 0 -5 5 -6 10 -3
5 3 10 1 10 -4 0 -6 21 -34 48 -63 73 -80 409 -416 483 -483 92 -84 198 -177
239 -211 19 -16 40 -33 46 -39 6 -5 27 -22 46 -37 19 -15 47 -39 64 -53 44
-39 54 -46 54 -41 0 3 10 -5 23 -17 36 -34 66 -57 75 -57 4 0 14 -9 22 -20 8
-11 18 -20 22 -20 7 0 72 -46 119 -84 9 -7 45 -33 80 -56 35 -24 66 -46 69
-49 3 -3 17 -12 33 -20 15 -8 27 -18 27 -23 0 -4 4 -8 9 -8 4 0 48 -26 97 -58
49 -33 103 -66 121 -75 17 -9 37 -22 45 -29 7 -7 27 -20 43 -28 17 -8 36 -19
44 -25 14 -11 103 -62 161 -93 19 -10 71 -38 115 -62 158 -85 507 -255 545
-265 3 0 27 -11 54 -23 27 -12 50 -22 52 -22 2 0 26 -9 52 -21 26 -12 56 -25
67 -29 11 -4 45 -18 75 -30 30 -12 59 -23 65 -25 5 -1 23 -7 38 -13 16 -7 30
-12 32 -12 2 0 16 -5 32 -12 15 -6 34 -12 41 -14 8 -1 21 -6 30 -10 9 -4 19
-8 22 -9 3 0 50 -16 105 -35 55 -19 102 -35 105 -35 49 -12 68 -18 85 -26 11
-5 31 -11 45 -13 14 -2 44 -11 68 -20 23 -8 42 -13 42 -11 0 3 12 0 28 -6 15
-6 34 -12 43 -14 9 -2 52 -13 95 -24 76 -20 194 -48 243 -57 12 -3 53 -12 89
-20 37 -9 80 -17 97 -20 16 -2 41 -6 55 -10 14 -3 34 -7 45 -8 11 -1 25 -4 30
-7 6 -3 20 -4 33 -3 12 0 22 -3 22 -8 0 -5 4 -7 9 -4 5 3 31 2 57 -3 27 -5 76
-13 109 -16 33 -4 63 -9 66 -11 3 -2 35 -6 70 -9 61 -5 82 -8 174 -19 22 -3
70 -8 107 -11 38 -3 97 -7 133 -10 66 -6 72 -2 66 37 0 4 -3 56 -6 115 -3 59
-7 115 -10 123 -2 8 -6 38 -10 65 -3 28 -7 61 -10 75 -3 14 -7 41 -10 60 -7
43 -45 209 -52 230 -3 8 -8 23 -10 33 -6 35 -72 223 -103 297 -17 41 -37 90
-43 108 -5 17 -14 32 -19 32 -5 0 -6 5 -3 10 3 6 1 10 -6 10 -7 0 -10 2 -7 6
6 5 -116 239 -132 254 -3 3 -21 30 -40 60 -19 30 -37 57 -40 60 -3 3 -21 28
-40 55 -19 28 -43 60 -53 72 -11 11 -19 25 -20 30 -1 4 -8 15 -17 23 -10 8
-46 48 -81 89 -35 41 -1010 1020 -2166 2175 l-2102 2102 -75 -81z"/>
<path d="M10040 4775 c-294 -294 -539 -535 -544 -535 -5 0 -7 -2 -5 -5 3 -2
-107 -116 -243 -252 -136 -136 -598 -597 -1026 -1024 -802 -802 -810 -810
-877 -894 -22 -27 -45 -55 -51 -62 -23 -24 -139 -207 -137 -215 2 -4 -2 -8 -8
-8 -5 0 -7 -4 -4 -10 3 -5 3 -10 -2 -10 -4 0 -13 -10 -18 -23 -6 -12 -21 -40
-32 -62 -38 -69 -95 -205 -86 -205 3 0 0 -6 -6 -14 -16 -19 -67 -194 -90 -311
-29 -147 -32 -169 -42 -330 l-3 -50 64 0 c36 0 85 3 110 6 25 4 74 10 110 14
108 12 161 19 283 41 17 3 43 7 57 9 14 2 36 7 50 10 14 3 39 8 55 11 17 2 45
9 64 14 19 5 37 7 40 5 2 -3 10 0 18 6 7 6 13 9 13 6 0 -3 24 2 53 10 28 8 61
16 72 18 11 2 20 4 20 5 0 1 7 3 16 5 9 1 59 15 110 30 52 15 101 28 109 30 8
2 27 8 43 14 15 6 27 8 27 6 0 -3 11 2 25 11 14 9 25 13 25 9 0 -4 7 -1 17 6
9 8 19 13 22 12 11 -5 244 79 361 130 14 5 27 11 30 12 9 3 54 23 105 46 28
12 52 23 55 24 7 1 306 151 375 188 33 17 66 37 73 44 7 7 20 13 28 13 8 0 14
5 14 10 0 6 5 10 11 10 12 0 41 17 195 117 53 35 98 63 100 63 7 0 313 225
366 269 7 6 43 36 81 66 37 29 73 60 81 67 7 7 44 40 82 73 75 66 271 253 313
299 28 31 49 53 128 140 29 31 85 96 125 144 40 48 78 92 83 98 10 11 17 20
102 133 24 31 46 61 51 66 4 6 18 26 32 45 13 19 27 37 30 40 4 3 10 14 15 25
11 27 10 24 20 70 4 22 12 46 18 53 5 6 7 12 4 12 -2 0 2 30 10 68 8 37 16 83
19 102 2 19 8 64 13 100 10 66 7 440 -4 495 -3 17 -7 44 -9 60 -3 17 -7 41
-10 55 -3 13 -8 42 -12 64 -3 22 -9 47 -14 56 -4 8 -8 18 -9 23 -1 4 -1 8 -2
10 0 1 -2 11 -4 22 -1 11 -13 52 -26 90 -12 39 -24 75 -25 80 -6 29 -122 283
-134 295 -3 3 -16 25 -29 50 -36 67 -132 207 -168 245 -7 8 -13 16 -13 19 0 3
-20 27 -44 53 -24 27 -59 65 -78 85 l-33 37 -535 -534z"/>
</g>
</svg>
