<svg xmlns="http://www.w3.org/2000/svg" viewBox="0 0 69.68 60.36">

  <g id="Livello_2" data-name="Livello 2">
    <g id="Livello_1-2" data-name="Livello 1">
      <path class="cls-1"
        d="M46.59,25.75a13.29,13.29,0,0,0-3.88,9.92l0,12.86,3.9-4L56.92,34.25a13.31,13.31,0,0,0,0-18.83Z" />
      <path class="cls-1"
        d="M65.79,32,46.59,51.17a13.3,13.3,0,0,0-3.87,9.15A35.11,35.11,0,0,0,65.09,50.11a35.82,35.82,0,0,0,4-4.76A13.3,13.3,0,0,0,65.79,32Z" />
      <path class="cls-1"
        d="M31,13.88,17.15,0a17.89,17.89,0,0,0,0,25.29L31,39.17l5.23,5.31,0-17.28A17.82,17.82,0,0,0,31,13.88Z" />
      <path class="cls-1"
        d="M5.23,22.24a17.89,17.89,0,0,0-4,19.25A48.56,48.56,0,0,0,5.69,46.6,47.3,47.3,0,0,0,36.22,60.36,17.79,17.79,0,0,0,31,48Z" />
    </g>
  </g>
</svg>